<svg width="20" height="20" viewBox="0 0 20 20" fill="none" xmlns="http://www.w3.org/2000/svg">
<path d="M17.175 15.9916C17.6972 15.2915 18.0556 14.4832 18.2237 13.6261C18.3918 12.769 18.3653 11.8852 18.1461 11.0397C17.927 10.1943 17.5208 9.40885 16.9575 8.74138C16.3942 8.0739 15.6882 7.54143 14.8917 7.18326C14.7182 6.18501 14.3194 5.23944 13.7257 4.4184C13.132 3.59736 12.3589 2.92245 11.4653 2.44495C10.5716 1.96745 9.5809 1.69992 8.56837 1.6627C7.55584 1.62548 6.54815 1.81954 5.62186 2.23014C4.69556 2.64074 3.87505 3.25707 3.22265 4.0323C2.57026 4.80753 2.10315 5.72127 1.85682 6.70409C1.61049 7.6869 1.59142 8.71293 1.80106 9.70423C2.01069 10.6955 2.44352 11.626 3.06666 12.4249L1.90833 13.5749C1.79269 13.6921 1.71436 13.8409 1.68322 14.0026C1.65207 14.1642 1.66951 14.3315 1.73333 14.4833C1.79584 14.6354 1.90201 14.7657 2.03844 14.8577C2.17487 14.9496 2.33547 14.9991 2.49999 14.9999H7.24166C7.71386 15.9954 8.45836 16.8368 9.38895 17.4268C10.3195 18.0167 11.3982 18.331 12.5 18.3333H17.5C17.6645 18.3324 17.8251 18.2829 17.9615 18.191C18.098 18.099 18.2041 17.9688 18.2667 17.8166C18.3305 17.6648 18.3479 17.4976 18.3168 17.3359C18.2856 17.1743 18.2073 17.0254 18.0917 16.9083L17.175 15.9916ZM6.66666 12.4999C6.6678 12.779 6.69009 13.0576 6.73333 13.3333H4.50833L4.79999 13.0499C4.8781 12.9725 4.94009 12.8803 4.9824 12.7787C5.02471 12.6772 5.04649 12.5683 5.04649 12.4583C5.04649 12.3482 5.02471 12.2393 4.9824 12.1378C4.94009 12.0362 4.8781 11.9441 4.79999 11.8666C4.33296 11.4047 3.9627 10.8543 3.71087 10.2476C3.45904 9.64093 3.33069 8.99012 3.33333 8.33326C3.33333 7.00717 3.86011 5.7354 4.79779 4.79772C5.73547 3.86004 7.00724 3.33326 8.33333 3.33326C9.36806 3.32704 10.3787 3.64524 11.2233 4.24314C12.0678 4.84104 12.7037 5.68857 13.0417 6.66659C12.8583 6.66659 12.6833 6.66659 12.5 6.66659C10.9529 6.66659 9.46917 7.28117 8.3752 8.37513C7.28124 9.4691 6.66666 10.9528 6.66666 12.4999ZM15.45 16.6666L15.4917 16.7083H12.5C11.5361 16.7065 10.6026 16.3707 9.85859 15.7579C9.11455 15.1452 8.60597 14.2934 8.41949 13.3477C8.23301 12.402 8.38017 11.421 8.83589 10.5716C9.29161 9.72226 10.0277 9.05718 10.9188 8.68967C11.8099 8.32217 12.8008 8.27497 13.7228 8.55611C14.6447 8.83726 15.4407 9.42936 15.9751 10.2315C16.5095 11.0337 16.7492 11.9964 16.6535 12.9555C16.5577 13.9146 16.1324 14.8109 15.45 15.4916C15.293 15.6454 15.2031 15.8551 15.2 16.0749C15.2004 16.1852 15.2228 16.2942 15.2657 16.3958C15.3086 16.4974 15.3713 16.5894 15.45 16.6666Z" fill="#444955"/>
</svg>
