<svg width="18" height="19" viewBox="0 0 18 19" fill="none" xmlns="http://www.w3.org/2000/svg">
<g clip-path="url(#clip0_2495_6119)">
<path d="M15.75 9.07031C15.75 10.3153 12.75 11.3203 9 11.3203C5.25 11.3203 2.25 10.3153 2.25 9.07031" stroke="#737780" stroke-width="2" stroke-linecap="round" stroke-linejoin="round"/>
<path d="M9 6.07031C12.7279 6.07031 15.75 5.06295 15.75 3.82031C15.75 2.57767 12.7279 1.57031 9 1.57031C5.27208 1.57031 2.25 2.57767 2.25 3.82031C2.25 5.06295 5.27208 6.07031 9 6.07031Z" stroke="#737780" stroke-width="2" stroke-linecap="round" stroke-linejoin="round"/>
<path d="M2.25 3.82031V14.3203C2.25 15.5653 5.25 16.5703 9 16.5703C12.75 16.5703 15.75 15.5653 15.75 14.3203V3.82031" stroke="#737780" stroke-width="2" stroke-linecap="round" stroke-linejoin="round"/>
</g>
<defs>
<clipPath id="clip0_2495_6119">
<rect width="18" height="18" fill="white" transform="translate(0 0.0703125)"/>
</clipPath>
</defs>
</svg>
