<svg width="26" height="26" viewBox="0 0 26 26" fill="none" xmlns="http://www.w3.org/2000/svg">
<path d="M11.3333 12.1667V17.1667M14.6667 12.1667V17.1667M6.33333 8.83333H19.6667M18.8333 8.83333L18.1108 18.9517C18.0809 19.3722 17.8927 19.7657 17.5843 20.053C17.2758 20.3403 16.8699 20.5 16.4483 20.5H9.55167C9.13012 20.5 8.72422 20.3403 8.41574 20.053C8.10725 19.7657 7.9191 19.3722 7.88917 18.9517L7.16667 8.83333H18.8333ZM15.5 8.83333V6.33333C15.5 6.11232 15.4122 5.90036 15.2559 5.74408C15.0996 5.5878 14.8877 5.5 14.6667 5.5H11.3333C11.1123 5.5 10.9004 5.5878 10.7441 5.74408C10.5878 5.90036 10.5 6.11232 10.5 6.33333V8.83333H15.5Z" stroke="#444955" stroke-width="1.5" stroke-linecap="round" stroke-linejoin="round"/>
</svg>
