<svg width="216" height="50" viewBox="0 0 216 50" fill="none" xmlns="http://www.w3.org/2000/svg">
<rect width="216" height="49.0701" fill="white"/>
<path d="M167.79 17.2201V12.5901H143.95V27.5601H159.66C161.57 27.5601 163.13 29.1001 163.13 31.0001C163.13 32.9001 161.58 34.4401 159.66 34.4401H143.95V39.0701H160.03C164.32 39.0701 167.79 35.6201 167.79 31.3601C167.79 27.1001 164.32 23.6501 160.03 23.6501H148.61V17.2001H167.79V17.2201Z" fill="url(#paint0_linear_2495_6059)"/>
<path fill-rule="evenodd" clip-rule="evenodd" d="M80.3562 39.07H85.2901L75.5301 22.75L65.8101 39.07H70.7237L75.5301 31L80.3562 39.07Z" fill="url(#paint1_linear_2495_6059)"/>
<path fill-rule="evenodd" clip-rule="evenodd" d="M10 12.59V17.22H20.13V39.07H24.79V17.22H34.92V12.59H10ZM134.19 28.38V27.56H122.21V34.45H141.44V39.07H117.58V27.56H114.65C114.52 28.61 114.28 29.61 113.94 30.56C112.13 35.63 107.57 39.07 101.79 39.07H89.9L92.66 34.44H101.79C104.86 34.44 107.41 32.94 108.85 30.56C109.39 29.67 109.77 28.66 109.96 27.56H94.41L87.62 38.96L75.53 18.81L63.46 39.07H58.56L51.86 31.71H41.81V39.07H37.08V12.59H53.65C54.99 12.59 56.25 12.88 57.39 13.4C57.45 13.43 57.52 13.46 57.58 13.49C59.02 14.13 60.18 15.12 61.02 16.38C62.06 17.94 62.61 19.92 62.61 22.24C62.61 24.43 62.09 26.31 61.15 27.8C60.82 28.32 60.43 28.79 59.99 29.21C59.75 29.45 59.5 29.67 59.23 29.87L56.16 26.77C57.41 25.91 58.05 24.39 58.05 22.31C58.05 21.39 57.91 20.6 57.65 19.93C57.12 18.79 56.15 17.91 54.96 17.49C54.38 17.31 53.72 17.22 52.99 17.22H41.81V27.63H52.99C53.26 27.63 53.52 27.62 53.78 27.59L60.77 34.68L75.52 10L88.49 31.62L93.24 23.66H109.9C109.65 22.55 109.21 21.54 108.61 20.67C107.14 18.52 104.7 17.21 101.79 17.21H82.2L79.4 12.54L101.79 12.59C107.58 12.59 112.16 15.72 113.95 20.67C114.29 21.6 114.54 22.6 114.67 23.66H117.58V12.59H141.4V17.22H122.21V23.66H134.19V22.77H141.44V28.38H134.19Z" fill="url(#paint2_linear_2495_6059)"/>
<defs>
<linearGradient id="paint0_linear_2495_6059" x1="156.11" y1="12.3101" x2="155.46" y2="39.3401" gradientUnits="userSpaceOnUse">
<stop offset="0.06" stop-color="#EC8C00"/>
<stop offset="1" stop-color="#FB6A00"/>
</linearGradient>
<linearGradient id="paint1_linear_2495_6059" x1="75.7462" y1="22.5774" x2="75.4439" y2="39.2406" gradientUnits="userSpaceOnUse">
<stop offset="0.06" stop-color="#EC8C00"/>
<stop offset="1" stop-color="#FB6A00"/>
</linearGradient>
<linearGradient id="paint2_linear_2495_6059" x1="75.93" y1="10" x2="75.93" y2="39.07" gradientUnits="userSpaceOnUse">
<stop stop-color="#AC25FF"/>
<stop offset="0.5" stop-color="#9207FF"/>
<stop offset="1" stop-color="#6100FF"/>
</linearGradient>
</defs>
</svg>
