<svg width="18" height="19" viewBox="0 0 18 19" fill="none" xmlns="http://www.w3.org/2000/svg">
<g clip-path="url(#clip0_2522_4598)">
<path d="M9 11.3203C10.2426 11.3203 11.25 10.313 11.25 9.07031C11.25 7.82767 10.2426 6.82031 9 6.82031C7.75736 6.82031 6.75 7.82767 6.75 9.07031C6.75 10.313 7.75736 11.3203 9 11.3203Z" stroke="#737780" stroke-width="2" stroke-linecap="round" stroke-linejoin="round"/>
<path d="M14.55 11.3203C14.4502 11.5465 14.4204 11.7975 14.4645 12.0408C14.5086 12.2841 14.6246 12.5086 14.7975 12.6853L14.8425 12.7303C14.982 12.8696 15.0926 13.0351 15.1681 13.2172C15.2436 13.3992 15.2824 13.5944 15.2824 13.7916C15.2824 13.9887 15.2436 14.1839 15.1681 14.366C15.0926 14.5481 14.982 14.7135 14.8425 14.8528C14.7032 14.9923 14.5378 15.1029 14.3557 15.1784C14.1736 15.2539 13.9784 15.2927 13.7812 15.2927C13.5841 15.2927 13.3889 15.2539 13.2068 15.1784C13.0247 15.1029 12.8593 14.9923 12.72 14.8528L12.675 14.8078C12.4982 14.6349 12.2737 14.5189 12.0304 14.4748C11.7871 14.4307 11.5362 14.4605 11.31 14.5603C11.0882 14.6554 10.899 14.8132 10.7657 15.0145C10.6325 15.2157 10.561 15.4515 10.56 15.6928V15.8203C10.56 16.2181 10.402 16.5997 10.1207 16.881C9.83936 17.1623 9.45782 17.3203 9.06 17.3203C8.66218 17.3203 8.28064 17.1623 7.99934 16.881C7.71804 16.5997 7.56 16.2181 7.56 15.8203V15.7528C7.55419 15.5046 7.47384 15.2638 7.32938 15.0618C7.18493 14.8599 6.98305 14.706 6.75 14.6203C6.52379 14.5205 6.27286 14.4907 6.02956 14.5348C5.78626 14.5789 5.56176 14.6949 5.385 14.8678L5.34 14.9128C5.20069 15.0523 5.03526 15.1629 4.85316 15.2384C4.67106 15.3139 4.47587 15.3527 4.27875 15.3527C4.08163 15.3527 3.88644 15.3139 3.70434 15.2384C3.52224 15.1629 3.35681 15.0523 3.2175 14.9128C3.07804 14.7735 2.9674 14.6081 2.89191 14.426C2.81642 14.2439 2.77757 14.0487 2.77757 13.8516C2.77757 13.6544 2.81642 13.4592 2.89191 13.2772C2.9674 13.0951 3.07804 12.9296 3.2175 12.7903L3.2625 12.7453C3.4354 12.5686 3.55139 12.3441 3.5955 12.1008C3.63962 11.8575 3.60984 11.6065 3.51 11.3803C3.41493 11.1585 3.25707 10.9693 3.05585 10.836C2.85463 10.7028 2.61884 10.6313 2.3775 10.6303H2.25C1.85218 10.6303 1.47064 10.4723 1.18934 10.191C0.908035 9.90967 0.75 9.52814 0.75 9.13031C0.75 8.73249 0.908035 8.35096 1.18934 8.06965C1.47064 7.78835 1.85218 7.63031 2.25 7.63031H2.3175C2.56575 7.62451 2.8065 7.54415 3.00847 7.3997C3.21045 7.25524 3.36429 7.05336 3.45 6.82031C3.54984 6.5941 3.57962 6.34317 3.5355 6.09987C3.49139 5.85657 3.3754 5.63207 3.2025 5.45531L3.1575 5.41031C3.01804 5.271 2.9074 5.10557 2.83191 4.92347C2.75642 4.74138 2.71757 4.54619 2.71757 4.34906C2.71757 4.15194 2.75642 3.95675 2.83191 3.77465C2.9074 3.59255 3.01804 3.42712 3.1575 3.28781C3.29681 3.14835 3.46224 3.03771 3.64434 2.96222C3.82644 2.88674 4.02163 2.84788 4.21875 2.84788C4.41587 2.84788 4.61106 2.88674 4.79316 2.96222C4.97526 3.03771 5.14069 3.14835 5.28 3.28781L5.325 3.33281C5.50176 3.50572 5.72626 3.6217 5.96956 3.66582C6.21285 3.70993 6.46379 3.68015 6.69 3.58031H6.75C6.97183 3.48524 7.16101 3.32738 7.29427 3.12616C7.42753 2.92494 7.49904 2.68915 7.5 2.44781V2.32031C7.5 1.92249 7.65804 1.54096 7.93934 1.25965C8.22064 0.978348 8.60218 0.820313 9 0.820312C9.39782 0.820313 9.77936 0.978348 10.0607 1.25965C10.342 1.54096 10.5 1.92249 10.5 2.32031V2.38781C10.501 2.62915 10.5725 2.86494 10.7057 3.06616C10.839 3.26738 11.0282 3.42524 11.25 3.52031C11.4762 3.62015 11.7271 3.64993 11.9704 3.60582C12.2137 3.5617 12.4382 3.44572 12.615 3.27281L12.66 3.22781C12.7993 3.08835 12.9647 2.97771 13.1468 2.90222C13.3289 2.82674 13.5241 2.78788 13.7213 2.78788C13.9184 2.78788 14.1136 2.82674 14.2957 2.90222C14.4778 2.97771 14.6432 3.08835 14.7825 3.22781C14.922 3.36712 15.0326 3.53255 15.1081 3.71465C15.1836 3.89675 15.2224 4.09194 15.2224 4.28906C15.2224 4.48619 15.1836 4.68138 15.1081 4.86347C15.0326 5.04557 14.922 5.211 14.7825 5.35031L14.7375 5.39531C14.5646 5.57207 14.4486 5.79657 14.4045 6.03987C14.3604 6.28317 14.3902 6.5341 14.49 6.76031V6.82031C14.5851 7.04214 14.7429 7.23133 14.9442 7.36458C15.1454 7.49784 15.3812 7.56935 15.6225 7.57031H15.75C16.1478 7.57031 16.5294 7.72835 16.8107 8.00965C17.092 8.29096 17.25 8.67249 17.25 9.07031C17.25 9.46814 17.092 9.84967 16.8107 10.131C16.5294 10.4123 16.1478 10.5703 15.75 10.5703H15.6825C15.4412 10.5713 15.2054 10.6428 15.0042 10.776C14.8029 10.9093 14.6451 11.0985 14.55 11.3203V11.3203Z" stroke="#737780" stroke-width="2" stroke-linecap="round" stroke-linejoin="round"/>
</g>
<defs>
<clipPath id="clip0_2522_4598">
<rect width="18" height="18" fill="white" transform="translate(0 0.0703125)"/>
</clipPath>
</defs>
</svg>
