<svg width="18" height="19" viewBox="0 0 18 19" fill="none" xmlns="http://www.w3.org/2000/svg">
<g clip-path="url(#clip0_2495_6096)">
<path d="M17.25 15.82V14.32C17.2495 13.6553 17.0283 13.0096 16.621 12.4842C16.2138 11.9589 15.6436 11.5837 15 11.4175" stroke="#737780" stroke-width="2" stroke-linecap="round" stroke-linejoin="round"/>
<path d="M12.75 15.8203V14.3203C12.75 13.5247 12.4339 12.7616 11.8713 12.199C11.3087 11.6364 10.5456 11.3203 9.75 11.3203H3.75C2.95435 11.3203 2.19129 11.6364 1.62868 12.199C1.06607 12.7616 0.75 13.5247 0.75 14.3203V15.8203" stroke="#737780" stroke-width="2" stroke-linecap="round" stroke-linejoin="round"/>
<path d="M12 2.41748C12.6453 2.58271 13.2173 2.95801 13.6257 3.48421C14.0342 4.01042 14.2559 4.6576 14.2559 5.32373C14.2559 5.98986 14.0342 6.63704 13.6257 7.16325C13.2173 7.68945 12.6453 8.06475 12 8.22998" stroke="#737780" stroke-width="2" stroke-linecap="round" stroke-linejoin="round"/>
<path d="M6.75 8.32007C8.40685 8.32007 9.75 6.97692 9.75 5.32007C9.75 3.66321 8.40685 2.32007 6.75 2.32007C5.09315 2.32007 3.75 3.66321 3.75 5.32007C3.75 6.97692 5.09315 8.32007 6.75 8.32007Z" stroke="#737780" stroke-width="2" stroke-linecap="round" stroke-linejoin="round"/>
</g>
<defs>
<clipPath id="clip0_2495_6096">
<rect width="18" height="18" fill="white" transform="translate(0 0.0700684)"/>
</clipPath>
</defs>
</svg>
