<svg width="16" height="17" viewBox="0 0 16 17" fill="none" xmlns="http://www.w3.org/2000/svg">
<g clip-path="url(#clip0_2340_134120)">
<path d="M8 16.1062C12.4183 16.1062 16 12.5244 16 8.10617C16 3.68789 12.4183 0.106171 8 0.106171C3.58172 0.106171 0 3.68789 0 8.10617C0 12.5244 3.58172 16.1062 8 16.1062Z" fill="#D80027"/>
<path d="M4.37812 4.97491L5.06875 7.09991H7.30312L5.49687 8.41554L6.1875 10.5405L4.37812 9.22804L2.56875 10.5405L3.2625 8.41554L1.45312 7.09991H3.6875L4.37812 4.97491Z" fill="#FFDA44"/>
<path d="M9.48435 12.4968L8.95623 11.8468L8.17498 12.1499L8.6281 11.4468L8.09998 10.7937L8.90935 11.0093L9.3656 10.3062L9.40935 11.1437L10.2219 11.3593L9.43748 11.6593L9.48435 12.4968Z" fill="#FFDA44"/>
<path d="M10.5344 10.5905L10.7844 9.79054L10.1 9.30617L10.9375 9.29367L11.1844 8.49367L11.4562 9.28742L12.2937 9.27804L11.6219 9.77804L11.8906 10.5718L11.2062 10.0874L10.5344 10.5905Z" fill="#FFDA44"/>
<path d="M11.95 5.97804L11.5813 6.73116L12.1813 7.31554L11.3531 7.19679L10.9844 7.94679L10.8406 7.12179L10.0094 7.00304L10.7531 6.61241L10.6094 5.78429L11.2094 6.36866L11.95 5.97804Z" fill="#FFDA44"/>
<path d="M9.50626 3.69679L9.44376 4.53117L10.2219 4.84679L9.40626 5.04679L9.34689 5.88429L8.90626 5.17179L8.09064 5.37179L8.63126 4.73117L8.18751 4.02179L8.96564 4.33742L9.50626 3.69679Z" fill="#FFDA44"/>
</g>
<defs>
<clipPath id="clip0_2340_134120">
<rect width="16" height="16" fill="white" transform="translate(0 0.106171)"/>
</clipPath>
</defs>
</svg>
