<svg width="16" height="17" viewBox="0 0 16 17" fill="none" xmlns="http://www.w3.org/2000/svg">
<g clip-path="url(#clip0_2340_134116)">
<path d="M8 16.1062C12.4183 16.1062 16 12.5244 16 8.10617C16 3.68789 12.4183 0.106171 8 0.106171C3.58172 0.106171 0 3.68789 0 8.10617C0 12.5244 3.58172 16.1062 8 16.1062Z" fill="#F0F0F0"/>
<path d="M1.65373 3.2356C1.02532 4.05319 0.55148 4.99553 0.275574 6.01925H4.43739L1.65373 3.2356Z" fill="#0052B4"/>
<path d="M15.7244 6.01927C15.4485 4.99558 14.9746 4.05324 14.3462 3.23564L11.5626 6.01927H15.7244Z" fill="#0052B4"/>
<path d="M0.275574 10.1932C0.551511 11.2168 1.02535 12.1592 1.65373 12.9768L4.43729 10.1932H0.275574Z" fill="#0052B4"/>
<path d="M12.8705 1.75995C12.0529 1.13154 11.1106 0.657697 10.0869 0.38176V4.54354L12.8705 1.75995Z" fill="#0052B4"/>
<path d="M3.12939 14.4524C3.94699 15.0808 4.88933 15.5546 5.91302 15.8306V11.6688L3.12939 14.4524Z" fill="#0052B4"/>
<path d="M5.91299 0.38176C4.8893 0.657697 3.94696 1.13154 3.12939 1.75992L5.91299 4.54351V0.38176Z" fill="#0052B4"/>
<path d="M10.087 15.8306C11.1107 15.5546 12.053 15.0808 12.8706 14.4524L10.087 11.6688V15.8306Z" fill="#0052B4"/>
<path d="M11.5626 10.1932L14.3462 12.9768C14.9746 12.1592 15.4485 11.2168 15.7244 10.1932H11.5626Z" fill="#0052B4"/>
<path d="M15.9323 7.0627H9.04353H9.0435V0.173889C8.70191 0.129421 8.35366 0.106171 8 0.106171C7.64628 0.106171 7.29809 0.129421 6.95653 0.173889V7.06264V7.06267H0.0677188C0.02325 7.40426 0 7.75251 0 8.10617C0 8.45989 0.02325 8.80808 0.0677188 9.14964H6.95647H6.9565V16.0385C7.29809 16.0829 7.64628 16.1062 8 16.1062C8.35366 16.1062 8.70191 16.083 9.04347 16.0385V9.1497V9.14967H15.9323C15.9768 8.80808 16 8.45989 16 8.10617C16 7.75251 15.9768 7.40426 15.9323 7.0627Z" fill="#D80027"/>
<path d="M10.087 10.1932L13.6569 13.7631C13.821 13.5989 13.9777 13.4273 14.1271 13.2495L11.0708 10.1931H10.087V10.1932Z" fill="#D80027"/>
<path d="M5.91305 10.1932H5.91298L2.34314 13.763C2.50726 13.9272 2.67886 14.0838 2.85673 14.2333L5.91305 11.1769V10.1932Z" fill="#D80027"/>
<path d="M5.91305 6.01926V6.0192L2.34317 2.4493C2.17899 2.61342 2.02236 2.78501 1.87292 2.96289L4.92927 6.01923H5.91305V6.01926Z" fill="#D80027"/>
<path d="M10.087 6.01927L13.6569 2.44933C13.4928 2.28514 13.3212 2.12852 13.1433 1.97911L10.087 5.03545V6.01927Z" fill="#D80027"/>
</g>
<defs>
<clipPath id="clip0_2340_134116">
<rect width="16" height="16" fill="white" transform="translate(0 0.106171)"/>
</clipPath>
</defs>
</svg>
