<svg width="18" height="18" viewBox="0 0 18 18" fill="none" xmlns="http://www.w3.org/2000/svg">
<g id="fluent:camera-20-filled">
<path id="Vector" d="M6.37453 9C6.37453 8.30381 6.65109 7.63613 7.14338 7.14384C7.63566 6.65156 8.30334 6.375 8.99953 6.375C9.69572 6.375 10.3634 6.65156 10.8557 7.14384C11.348 7.63613 11.6245 8.30381 11.6245 9C11.6245 9.69619 11.348 10.3639 10.8557 10.8562C10.3634 11.3484 9.69572 11.625 8.99953 11.625C8.30334 11.625 7.63566 11.3484 7.14338 10.8562C6.65109 10.3639 6.37453 9.69619 6.37453 9ZM6.18553 2.72275C6.29481 2.50547 6.46232 2.32284 6.66936 2.19521C6.87639 2.06759 7.11482 2.00001 7.35803 2H10.6515C10.8954 2.00001 11.1345 2.06796 11.3419 2.19624C11.5493 2.32452 11.7168 2.50805 11.8258 2.72625L12.3377 3.75H13.8164C14.3966 3.75 14.953 3.98047 15.3632 4.3907C15.7734 4.80094 16.0039 5.35734 16.0039 5.9375V12.9375C16.0039 13.5177 15.7734 14.0741 15.3632 14.4843C14.953 14.8945 14.3966 15.125 13.8164 15.125H4.19141C3.61125 15.125 3.05485 14.8945 2.64461 14.4843C2.23437 14.0741 2.00391 13.5177 2.00391 12.9375V5.9375C2.00391 5.35734 2.23437 4.80094 2.64461 4.3907C3.05485 3.98047 3.61125 3.75 4.19141 3.75H5.67016L6.18553 2.72275ZM8.99953 5.5C8.07127 5.5 7.18103 5.86875 6.52466 6.52513C5.86828 7.1815 5.49953 8.07174 5.49953 9C5.49953 9.92826 5.86828 10.8185 6.52466 11.4749C7.18103 12.1313 8.07127 12.5 8.99953 12.5C9.92779 12.5 10.818 12.1313 11.4744 11.4749C12.1308 10.8185 12.4995 9.92826 12.4995 9C12.4995 8.07174 12.1308 7.1815 11.4744 6.52513C10.818 5.86875 9.92779 5.5 8.99953 5.5Z" fill="#737780"/>
</g>
</svg>
